<?xml version="1.0" encoding="UTF-8"?>
<svg version="1.1" xmlns="http://www.w3.org/2000/svg" width="1024" height="1024">
<path d="M0 0 C337.92 0 675.84 0 1024 0 C1024 337.92 1024 675.84 1024 1024 C686.08 1024 348.16 1024 0 1024 C0 686.08 0 348.16 0 0 Z " fill="#FBFBFB" transform="translate(0,0)"/>
<path d="M0 0 C1.14125336 -0.00335861 2.28250671 -0.00671722 3.45834351 -0.01017761 C7.2049063 -0.01962213 10.95142411 -0.02162738 14.69799805 -0.02270508 C17.32057208 -0.02592194 19.94314594 -0.02928633 22.5657196 -0.03279114 C28.0537444 -0.0391651 33.54175716 -0.04067577 39.02978516 -0.04003906 C45.34180062 -0.03943889 51.65373047 -0.04998652 57.96572429 -0.06578273 C64.0750038 -0.08051772 70.18424271 -0.08402488 76.29353905 -0.08342934 C78.87571754 -0.08460371 81.45789678 -0.08899475 84.04006386 -0.0967617 C87.66219679 -0.10663791 91.28411304 -0.10365364 94.90625 -0.09765625 C95.95653885 -0.10327576 97.0068277 -0.10889526 98.08894348 -0.11468506 C120.17473479 -0.02248013 141.54043518 6.18716977 158.1472168 21.14526367 C159.06374023 21.9399707 159.06374023 21.9399707 159.9987793 22.75073242 C172.63765507 34.43736413 181.61434349 51.98314715 183.1472168 69.14526367 C183.26685656 73.62524979 183.24149811 78.10159881 183.2097168 82.58276367 C183.20520508 83.79125977 183.20069336 84.99975586 183.19604492 86.24487305 C183.18431825 89.21172156 183.16790576 92.17846637 183.1472168 95.14526367 C184.44267929 95.14082245 185.73814178 95.13638123 187.07286072 95.13180542 C199.2991634 95.0912095 211.52545235 95.06125531 223.75180721 95.04163933 C230.03704074 95.03121546 236.32221973 95.01708167 242.60742188 94.99438477 C248.67635698 94.97260673 254.74523972 94.96068454 260.81421089 94.95550919 C263.12617377 94.95182235 265.43813388 94.94462291 267.75007439 94.93380356 C270.9957174 94.91922286 274.24114576 94.9172885 277.48681641 94.91821289 C278.43628647 94.91102234 279.38575653 94.90383179 280.36399841 94.89642334 C286.21426134 94.9143774 291.4987927 95.62978599 297.1472168 97.14526367 C298.63801758 97.53584961 298.63801758 97.53584961 300.15893555 97.93432617 C321.58514541 104.62806181 335.86232429 118.53387541 346.5222168 138.02026367 C351.72894913 149.18027635 352.5951486 161.06846857 352.52816772 173.21763611 C352.53163587 174.56386761 352.53640811 175.91009625 352.54234946 177.25631911 C352.55473074 180.90853159 352.54874876 184.56050519 352.5393908 188.21271789 C352.53254703 192.16986794 352.54310773 196.12697954 352.55133057 200.0841217 C352.56461413 207.817852 352.56181417 215.55149456 352.55309264 223.28522819 C352.54629473 229.57573946 352.54540846 235.86622629 352.54866409 242.15674019 C352.54912379 243.05485604 352.54958349 243.95297189 352.55005712 244.87830337 C352.55101638 246.70329066 352.55198902 248.52827795 352.55297489 250.35326523 C352.56151317 267.43423494 352.55171951 284.51515622 352.5355738 301.59611798 C352.52217434 316.22409639 352.52449868 330.85200335 352.53833008 345.47998047 C352.55441754 362.50171872 352.56068693 379.5234146 352.55149329 396.5451594 C352.55053773 398.36343006 352.54959461 400.18170072 352.54866409 401.99997139 C352.54820127 402.89439513 352.54773844 403.78881887 352.54726159 404.71034635 C352.54468101 410.98630494 352.54902254 417.26223645 352.55610275 423.53819084 C352.56455333 431.19659193 352.56216343 438.85490088 352.54626052 446.51329153 C352.53842501 450.41406772 352.53520459 454.3146908 352.54520798 458.21546555 C352.6111952 486.31918796 350.68967515 509.6103265 330.7097168 531.08276367 C313.47381942 547.07317662 292.68888801 550.61253961 270.25218201 550.51948547 C268.24898428 550.52222959 266.245788 550.52628467 264.24259526 550.53152913 C258.76531377 550.54207319 253.2881965 550.53401476 247.81092227 550.52277863 C241.89334015 550.51391143 235.97577895 550.52238739 230.05819702 550.52864075 C219.14530785 550.53756893 208.23247606 550.53297664 197.31959061 550.52147693 C187.23732321 550.5109253 177.15507447 550.50640341 167.07280159 550.50777245 C166.06818698 550.50789849 166.06818698 550.50789849 165.04327712 550.50802708 C162.32432965 550.50837935 159.60538218 550.50876337 156.88643472 550.50919266 C131.40102942 550.51315426 105.9156571 550.50045592 80.43026123 550.4796661 C57.80441062 550.46129569 35.17859164 550.45548472 12.55273438 550.4609375 C11.09971153 550.46128393 9.64668869 550.46163003 8.19366585 550.46197579 C7.11612784 550.46223228 7.11612784 550.46223228 6.01682138 550.46249396 C2.40044022 550.46334755 -1.21594095 550.46417133 -4.83232212 550.46496296 C-5.90258709 550.46519858 -5.90258709 550.46519858 -6.99447357 550.46543896 C-25.92013479 550.46943173 -44.84579299 550.46394981 -63.77145237 550.45545167 C-65.8085985 550.45454466 -67.84574463 550.45363901 -69.88289076 550.45273644 C-71.2341848 550.45213533 -72.58547883 550.45152671 -73.93677286 550.45091053 C-83.34483373 550.44669448 -92.75288863 550.44610867 -102.16095014 550.44801602 C-114.28624307 550.45046211 -126.41150269 550.44614802 -138.53678698 550.43080602 C-144.38127146 550.42357027 -150.22571176 550.41947806 -156.07019997 550.42404938 C-161.42361764 550.42813471 -166.7769442 550.42293489 -172.13034808 550.4104233 C-174.06353628 550.40750281 -175.99673312 550.40791741 -177.92991907 550.41206638 C-203.12731613 550.46122114 -203.12731613 550.46122114 -214.8527832 545.08276367 C-215.5243042 544.78112305 -216.1958252 544.47948242 -216.88769531 544.16870117 C-223.58089435 541.02607047 -229.22448152 536.95096742 -234.8527832 532.14526367 C-235.50504883 531.60514648 -236.15731445 531.0650293 -236.8293457 530.50854492 C-248.67999251 519.76720524 -257.0443762 502.0093704 -258.03935111 486.1764257 C-258.11287339 482.67416454 -258.12412474 479.17682574 -258.11347961 475.67379761 C-258.11650436 474.31965904 -258.12039546 472.96552219 -258.12507218 471.61138833 C-258.13531976 467.90953416 -258.13317864 464.20777719 -258.12889159 460.50591516 C-258.12641836 456.50573855 -258.13544607 452.50558497 -258.14292908 448.50541687 C-258.15566288 440.67496541 -258.1574713 432.84454827 -258.15512881 425.0140882 C-258.15334353 418.64524361 -258.15509981 412.27640942 -258.15935326 405.90756607 C-258.15994845 405.00002248 -258.16054363 404.09247888 -258.16115686 403.15743396 C-258.16236866 401.31352074 -258.16358279 399.46960751 -258.16479924 397.62569429 C-258.17567031 380.34116073 -258.1735147 363.05664669 -258.16741439 345.77211203 C-258.16224918 329.98183562 -258.17349099 314.19162099 -258.19251261 298.4013568 C-258.21191678 282.16836547 -258.22014226 265.93540332 -258.21638936 249.70240033 C-258.21448077 240.59677481 -258.21693115 231.49120181 -258.2311039 222.38558578 C-258.24305179 214.63113074 -258.24438475 206.87676053 -258.23231373 199.12230425 C-258.22644804 195.17105837 -258.22526096 191.21996739 -258.23731613 187.26873207 C-258.24825378 183.64137881 -258.24497935 180.01430827 -258.23105445 176.38696779 C-258.22719891 174.47479909 -258.23789008 172.56261744 -258.24935132 170.6504792 C-258.17885129 159.20117551 -256.82699013 147.23001294 -251.2902832 137.02026367 C-250.94441162 136.36268066 -250.59854004 135.70509766 -250.2421875 135.02758789 C-239.8040604 115.83736798 -224.00330675 103.33071308 -203.02856445 96.98901367 C-194.68916203 95.07769202 -186.03256181 94.99718644 -177.51611328 95.03173828 C-176.5489035 95.03159225 -175.58169373 95.03144623 -174.58517456 95.03129578 C-171.43086396 95.03198498 -168.27661457 95.03973025 -165.12231445 95.04760742 C-162.91843193 95.04947514 -160.71454898 95.05089737 -158.51066589 95.05189514 C-152.74204336 95.0556925 -146.97344647 95.06549871 -141.20483398 95.07659912 C-135.30558621 95.08687337 -129.40633424 95.09140559 -123.50708008 95.09643555 C-111.9556366 95.10712375 -100.40421204 95.12416635 -88.8527832 95.14526367 C-88.85900192 94.39888641 -88.86522064 93.65250916 -88.87162781 92.8835144 C-88.89646925 89.4681723 -88.91181073 86.05284929 -88.92700195 82.63745117 C-88.94192688 80.87630981 -88.94192688 80.87630981 -88.95715332 79.07958984 C-89.02817178 57.78152748 -81.35667567 38.82471802 -66.6652832 23.33276367 C-48.00105643 5.63302907 -25.12883849 -0.01078044 0 0 Z " fill="#FBFBFB" transform="translate(464.852783203125,213.854736328125)"/>
<path d="M0 0 C1.14125336 -0.00335861 2.28250671 -0.00671722 3.45834351 -0.01017761 C7.2049063 -0.01962213 10.95142411 -0.02162738 14.69799805 -0.02270508 C17.32057208 -0.02592194 19.94314594 -0.02928633 22.5657196 -0.03279114 C28.0537444 -0.0391651 33.54175716 -0.04067577 39.02978516 -0.04003906 C45.34180062 -0.03943889 51.65373047 -0.04998652 57.96572429 -0.06578273 C64.0750038 -0.08051772 70.18424271 -0.08402488 76.29353905 -0.08342934 C78.87571754 -0.08460371 81.45789678 -0.08899475 84.04006386 -0.0967617 C87.66219679 -0.10663791 91.28411304 -0.10365364 94.90625 -0.09765625 C95.95653885 -0.10327576 97.0068277 -0.10889526 98.08894348 -0.11468506 C120.17473479 -0.02248013 141.54043518 6.18716977 158.1472168 21.14526367 C159.06374023 21.9399707 159.06374023 21.9399707 159.9987793 22.75073242 C172.63765507 34.43736413 181.61434349 51.98314715 183.1472168 69.14526367 C183.26685656 73.62524979 183.24149811 78.10159881 183.2097168 82.58276367 C183.20520508 83.79125977 183.20069336 84.99975586 183.19604492 86.24487305 C183.18431825 89.21172156 183.16790576 92.17846637 183.1472168 95.14526367 C184.44267929 95.14082245 185.73814178 95.13638123 187.07286072 95.13180542 C199.2991634 95.0912095 211.52545235 95.06125531 223.75180721 95.04163933 C230.03704074 95.03121546 236.32221973 95.01708167 242.60742188 94.99438477 C248.67635698 94.97260673 254.74523972 94.96068454 260.81421089 94.95550919 C263.12617377 94.95182235 265.43813388 94.94462291 267.75007439 94.93380356 C270.9957174 94.91922286 274.24114576 94.9172885 277.48681641 94.91821289 C278.43628647 94.91102234 279.38575653 94.90383179 280.36399841 94.89642334 C286.21426134 94.9143774 291.4987927 95.62978599 297.1472168 97.14526367 C298.63801758 97.53584961 298.63801758 97.53584961 300.15893555 97.93432617 C321.58514541 104.62806181 335.86232429 118.53387541 346.5222168 138.02026367 C351.72894913 149.18027635 352.5951486 161.06846857 352.52816772 173.21763611 C352.53163587 174.56386761 352.53640811 175.91009625 352.54234946 177.25631911 C352.55473074 180.90853159 352.54874876 184.56050519 352.5393908 188.21271789 C352.53254703 192.16986794 352.54310773 196.12697954 352.55133057 200.0841217 C352.56461413 207.817852 352.56181417 215.55149456 352.55309264 223.28522819 C352.54629473 229.57573946 352.54540846 235.86622629 352.54866409 242.15674019 C352.54912379 243.05485604 352.54958349 243.95297189 352.55005712 244.87830337 C352.55101638 246.70329066 352.55198902 248.52827795 352.55297489 250.35326523 C352.56151317 267.43423494 352.55171951 284.51515622 352.5355738 301.59611798 C352.52217434 316.22409639 352.52449868 330.85200335 352.53833008 345.47998047 C352.55441754 362.50171872 352.56068693 379.5234146 352.55149329 396.5451594 C352.55053773 398.36343006 352.54959461 400.18170072 352.54866409 401.99997139 C352.54820127 402.89439513 352.54773844 403.78881887 352.54726159 404.71034635 C352.54468101 410.98630494 352.54902254 417.26223645 352.55610275 423.53819084 C352.56455333 431.19659193 352.56216343 438.85490088 352.54626052 446.51329153 C352.53842501 450.41406772 352.53520459 454.3146908 352.54520798 458.21546555 C352.6111952 486.31918796 350.68967515 509.6103265 330.7097168 531.08276367 C313.47381942 547.07317662 292.68888801 550.61253961 270.25218201 550.51948547 C268.24898428 550.52222959 266.245788 550.52628467 264.24259526 550.53152913 C258.76531377 550.54207319 253.2881965 550.53401476 247.81092227 550.52277863 C241.89334015 550.51391143 235.97577895 550.52238739 230.05819702 550.52864075 C219.14530785 550.53756893 208.23247606 550.53297664 197.31959061 550.52147693 C187.23732321 550.5109253 177.15507447 550.50640341 167.07280159 550.50777245 C166.06818698 550.50789849 166.06818698 550.50789849 165.04327712 550.50802708 C162.32432965 550.50837935 159.60538218 550.50876337 156.88643472 550.50919266 C131.40102942 550.51315426 105.9156571 550.50045592 80.43026123 550.4796661 C57.80441062 550.46129569 35.17859164 550.45548472 12.55273438 550.4609375 C11.09971153 550.46128393 9.64668869 550.46163003 8.19366585 550.46197579 C7.11612784 550.46223228 7.11612784 550.46223228 6.01682138 550.46249396 C2.40044022 550.46334755 -1.21594095 550.46417133 -4.83232212 550.46496296 C-5.90258709 550.46519858 -5.90258709 550.46519858 -6.99447357 550.46543896 C-25.92013479 550.46943173 -44.84579299 550.46394981 -63.77145237 550.45545167 C-65.8085985 550.45454466 -67.84574463 550.45363901 -69.88289076 550.45273644 C-71.2341848 550.45213533 -72.58547883 550.45152671 -73.93677286 550.45091053 C-83.34483373 550.44669448 -92.75288863 550.44610867 -102.16095014 550.44801602 C-114.28624307 550.45046211 -126.41150269 550.44614802 -138.53678698 550.43080602 C-144.38127146 550.42357027 -150.22571176 550.41947806 -156.07019997 550.42404938 C-161.42361764 550.42813471 -166.7769442 550.42293489 -172.13034808 550.4104233 C-174.06353628 550.40750281 -175.99673312 550.40791741 -177.92991907 550.41206638 C-203.12731613 550.46122114 -203.12731613 550.46122114 -214.8527832 545.08276367 C-215.5243042 544.78112305 -216.1958252 544.47948242 -216.88769531 544.16870117 C-223.58089435 541.02607047 -229.22448152 536.95096742 -234.8527832 532.14526367 C-235.50504883 531.60514648 -236.15731445 531.0650293 -236.8293457 530.50854492 C-248.67999251 519.76720524 -257.0443762 502.0093704 -258.03935111 486.1764257 C-258.11287339 482.67416454 -258.12412474 479.17682574 -258.11347961 475.67379761 C-258.11650436 474.31965904 -258.12039546 472.96552219 -258.12507218 471.61138833 C-258.13531976 467.90953416 -258.13317864 464.20777719 -258.12889159 460.50591516 C-258.12641836 456.50573855 -258.13544607 452.50558497 -258.14292908 448.50541687 C-258.15566288 440.67496541 -258.1574713 432.84454827 -258.15512881 425.0140882 C-258.15334353 418.64524361 -258.15509981 412.27640942 -258.15935326 405.90756607 C-258.15994845 405.00002248 -258.16054363 404.09247888 -258.16115686 403.15743396 C-258.16236866 401.31352074 -258.16358279 399.46960751 -258.16479924 397.62569429 C-258.17567031 380.34116073 -258.1735147 363.05664669 -258.16741439 345.77211203 C-258.16224918 329.98183562 -258.17349099 314.19162099 -258.19251261 298.4013568 C-258.21191678 282.16836547 -258.22014226 265.93540332 -258.21638936 249.70240033 C-258.21448077 240.59677481 -258.21693115 231.49120181 -258.2311039 222.38558578 C-258.24305179 214.63113074 -258.24438475 206.87676053 -258.23231373 199.12230425 C-258.22644804 195.17105837 -258.22526096 191.21996739 -258.23731613 187.26873207 C-258.24825378 183.64137881 -258.24497935 180.01430827 -258.23105445 176.38696779 C-258.22719891 174.47479909 -258.23789008 172.56261744 -258.24935132 170.6504792 C-258.17885129 159.20117551 -256.82699013 147.23001294 -251.2902832 137.02026367 C-250.94441162 136.36268066 -250.59854004 135.70509766 -250.2421875 135.02758789 C-239.8040604 115.83736798 -224.00330675 103.33071308 -203.02856445 96.98901367 C-194.68916203 95.07769202 -186.03256181 94.99718644 -177.51611328 95.03173828 C-176.5489035 95.03159225 -175.58169373 95.03144623 -174.58517456 95.03129578 C-171.43086396 95.03198498 -168.27661457 95.03973025 -165.12231445 95.04760742 C-162.91843193 95.04947514 -160.71454898 95.05089737 -158.51066589 95.05189514 C-152.74204336 95.0556925 -146.97344647 95.06549871 -141.20483398 95.07659912 C-135.30558621 95.08687337 -129.40633424 95.09140559 -123.50708008 95.09643555 C-111.9556366 95.10712375 -100.40421204 95.12416635 -88.8527832 95.14526367 C-88.85900192 94.39888641 -88.86522064 93.65250916 -88.87162781 92.8835144 C-88.89646925 89.4681723 -88.91181073 86.05284929 -88.92700195 82.63745117 C-88.94192688 80.87630981 -88.94192688 80.87630981 -88.95715332 79.07958984 C-89.02817178 57.78152748 -81.35667567 38.82471802 -66.6652832 23.33276367 C-48.00105643 5.63302907 -25.12883849 -0.01078044 0 0 Z M-211.57543945 144.96166992 C-218.82199924 153.77505345 -219.29433105 163.60680636 -219.24046326 174.61877441 C-219.24464324 175.96084267 -219.25012438 177.3029074 -219.25678307 178.64496565 C-219.27116911 182.30864887 -219.26701459 185.97210583 -219.25961626 189.63580108 C-219.25486992 193.59633829 -219.26740726 197.55682758 -219.27763367 201.51734924 C-219.29479753 209.26645644 -219.29566681 217.01548247 -219.29042076 224.76460373 C-219.28637384 231.06434521 -219.28782881 237.36406276 -219.29316902 243.6638031 C-219.29391744 244.56155338 -219.29466587 245.45930365 -219.29543697 246.38425848 C-219.29696849 248.20821083 -219.29850684 250.03216318 -219.30005194 251.85611552 C-219.31376789 268.94593913 -219.30834533 286.03571692 -219.29686672 303.12553948 C-219.28693215 318.75102133 -219.2998805 334.37638481 -219.32380091 350.0018484 C-219.34819746 366.0597018 -219.35779861 382.11750008 -219.35114819 398.17537165 C-219.34765761 407.18526306 -219.34987755 416.19506342 -219.36739922 425.2049408 C-219.382128 432.87353461 -219.38274764 440.54197322 -219.3653283 448.21056402 C-219.35682207 452.1207341 -219.35465942 456.03062699 -219.36997986 459.94078255 C-219.38384811 463.52474043 -219.37903701 467.1081842 -219.35974062 470.69211251 C-219.35421741 472.59301934 -219.36823422 474.49395248 -219.38309473 476.39480925 C-219.29233952 486.99074486 -216.54348987 496.50375129 -208.8527832 504.14526367 C-200.98318244 509.99868573 -193.37556532 512.45668245 -183.55707169 512.40253258 C-182.74524772 512.40603865 -181.93342375 512.40954473 -181.09699905 512.41315705 C-178.3773619 512.42245907 -175.65793945 512.41755081 -172.93829346 512.41268921 C-170.96843534 512.41642607 -168.99857871 512.42102773 -167.02872443 512.42641985 C-161.61580736 512.43866082 -156.20295204 512.43838809 -150.79002428 512.4360311 C-144.95210853 512.43562322 -139.11421266 512.44665941 -133.27630615 512.45614624 C-121.83874488 512.47276321 -110.40120423 512.4782561 -98.9636319 512.479371 C-89.66707394 512.48032114 -80.37052279 512.48442972 -71.07396698 512.49077225 C-68.39723961 512.49256736 -65.72051224 512.49434699 -63.04378486 512.496122 C-62.0455983 512.49678515 -62.0455983 512.49678515 -61.02724636 512.49746169 C-42.31063644 512.50976904 -23.59402884 512.51766292 -4.8774147 512.51677513 C-4.17184701 512.51674397 -3.46627932 512.51671282 -2.7393308 512.51668071 C0.83671639 512.5165145 4.41276357 512.51631642 7.98881075 512.5161113 C8.69901636 512.51607141 9.40922197 512.51603152 10.14094896 512.51599042 C11.5771578 512.51590954 13.01336664 512.51582595 14.44957547 512.51573964 C36.79250017 512.51451424 59.13536416 512.52952555 81.47827148 512.55688477 C106.58524866 512.58761602 131.69218595 512.60481663 156.79918313 512.60295832 C170.09097654 512.60221749 183.38271283 512.60779827 196.67449188 512.62931442 C207.9911764 512.64751589 219.30776142 512.65188199 230.62445423 512.63829558 C236.39794498 512.63176079 242.17124476 512.63166741 247.94471741 512.64900208 C253.23240581 512.66471486 258.51975154 512.66188722 263.80743149 512.64443381 C265.71790483 512.64136 267.62840363 512.64501062 269.53884694 512.65615396 C282.10460514 512.72458018 293.15043085 512.19732825 303.36206055 503.91479492 C308.75670467 498.56736869 312.71903435 491.97027182 313.39906579 484.3072831 C313.39993257 483.31805393 313.40079935 482.32882476 313.40169239 481.30961895 C313.40752458 480.1606692 313.41335678 479.01171945 313.4193657 477.82795304 C313.41558638 476.57533813 313.41180706 475.32272321 313.40791321 474.03215027 C313.41093507 472.68044951 313.41482472 471.32875045 313.41950577 469.97705442 C313.42979031 466.2682403 313.4276028 462.5595228 313.42332518 458.85070074 C313.42085875 454.84854106 313.42987114 450.84640469 313.43736267 446.84425354 C313.45011446 439.00537788 313.45190273 431.16653647 313.44956241 423.32765218 C313.44777946 416.95534713 313.4495284 410.58305248 313.45378685 404.21074867 C313.45438204 403.30384163 313.45497723 402.39693459 313.45559045 401.46254552 C313.45680221 399.6201503 313.45801634 397.77775509 313.45923283 395.93535987 C313.47011043 378.65531341 313.46794496 361.37528646 313.46184798 344.0952389 C313.45667985 328.29101864 313.46793114 312.48686003 313.4869462 296.68265196 C313.50632444 280.4520446 313.51458055 264.22146641 313.51082295 247.99084741 C313.50891073 238.87977941 313.51140043 229.76876387 313.52553749 220.65770531 C313.53745215 212.90044413 313.5388553 205.14326771 313.52674732 197.38600536 C313.52085895 193.42944799 313.51975797 189.47304562 313.53174973 185.51649857 C313.54260966 181.89118929 313.53950403 178.26616444 313.52548804 174.64086846 C313.52159205 172.71517476 313.53238742 170.78946843 313.54378492 168.86380452 C313.48366499 159.21353107 312.09026141 150.32950587 305.1472168 143.14526367 C297.43461158 136.87785025 289.58207634 133.67467562 279.6944294 133.76774025 C278.87777524 133.76337993 278.06112108 133.7590196 277.21971983 133.75452715 C274.48958115 133.74359911 271.75995047 133.75398145 269.02981567 133.76431274 C267.05013136 133.76085521 265.07044897 133.75609 263.0907706 133.75013101 C257.65534368 133.73760439 252.22007473 133.74379906 246.78464723 133.75308967 C240.92086353 133.75987306 235.05710714 133.74940238 229.19332886 133.7411499 C217.70742923 133.72780232 206.22158838 133.73069504 194.73568644 133.73938783 C185.40052722 133.74616058 176.06538279 133.74716216 166.73022079 133.74381638 C166.0667755 133.74358722 165.40333021 133.74335807 164.71978052 133.74312197 C162.02656872 133.74218794 159.33335693 133.74123273 156.64014515 133.74024267 C131.3772165 133.73106641 106.11431989 133.73938451 80.85139618 133.75553337 C58.41434134 133.7697668 35.97733759 133.76849898 13.5402832 133.75415039 C-11.67363332 133.73807985 -36.88752152 133.73172049 -62.10144246 133.74098718 C-64.79034685 133.74194931 -67.47925126 133.74288784 -70.16815567 133.74381638 C-71.16125467 133.74417222 -71.16125467 133.74417222 -72.17441627 133.74453526 C-82.16494199 133.74794526 -92.1554399 133.74394258 -102.14596176 133.73637772 C-113.50912254 133.7279627 -124.87222114 133.73024283 -136.23537479 133.74621995 C-142.03301691 133.75410304 -147.83055537 133.75719353 -153.62819672 133.74727249 C-158.93671986 133.73832588 -164.2450434 133.74325813 -169.55354847 133.75920515 C-171.47271886 133.7625531 -173.39190616 133.76085858 -175.31106566 133.75357778 C-189.50564187 133.70386314 -201.22869543 134.05183779 -211.57543945 144.96166992 Z " fill="#121212" transform="translate(464.852783203125,213.854736328125)"/>
<path d="M0 0 C2.8977137 2.27884815 5.45047988 4.81342956 8.02001953 7.45239258 C8.75299759 8.1846405 9.48597565 8.91688843 10.24116516 9.67132568 C12.6337771 12.0673896 15.00823774 14.48060244 17.3828125 16.89453125 C19.0489408 18.56999606 20.71618472 20.24435213 22.38449097 21.91764832 C26.75210887 26.30426944 31.10449548 30.70570078 35.45379639 35.11047363 C39.90273936 39.61075252 44.36604018 44.09674223 48.828125 48.58398438 C57.56613048 57.37545979 66.28809898 66.18266102 75 75 C77.92718941 73.67966329 79.98099111 72.26122741 82.2297821 69.9770813 C82.84492172 69.35746521 83.46006134 68.73784912 84.09384155 68.09945679 C84.7572757 67.42097687 85.42070984 66.74249695 86.10424805 66.04345703 C86.81213974 65.32782593 87.52003143 64.61219482 88.24937439 63.87487793 C89.78581823 62.32078409 91.32005095 60.76450184 92.85233116 59.20630264 C95.28150896 56.73770111 97.71814107 54.27669648 100.15718079 51.81784058 C107.09110283 44.82589028 114.01543018 37.82455805 120.92456055 30.80810547 C125.15239671 26.51567354 129.39246535 22.23564843 133.6403904 17.96310043 C135.25374109 16.33552448 136.86241006 14.70329339 138.46619225 13.06628799 C140.71559358 10.77095681 142.98024037 8.49172907 145.2487793 6.21533203 C145.90209229 5.54090057 146.55540527 4.86646912 147.22851562 4.17160034 C153.20541904 -1.76747003 159.82227864 -5.5734748 168.4375 -5.5625 C181.07239257 -5.00744114 188.44389293 2.37941564 196.74609375 11.203125 C201.56818101 16.61202711 203.98333966 21.82431966 204.4375 29.0625 C202.61174072 45.49433353 188.42984688 55.71161659 177.296875 66.80078125 C175.88660019 68.20918599 174.47654969 69.61781537 173.06671143 71.0266571 C169.38185725 74.70772316 165.69401126 78.38577717 162.00549316 82.06317139 C158.25183995 85.80656539 154.50103803 89.55281392 150.75 93.29882812 C144.69645717 99.3436189 138.64121334 105.38669919 132.58364868 111.42745972 C129.38660727 114.61582255 126.19195363 117.80654331 123 121 C123.38707469 121.38246572 123.77414938 121.76493145 124.17295361 122.15898705 C133.61927282 131.49456593 143.05132112 140.84435801 152.46844769 150.20938683 C157.02306009 154.73795438 161.58218514 159.26177288 166.15209961 163.77490234 C170.56572335 168.13402689 174.96686535 172.50540639 179.35978127 176.88539505 C181.03425193 178.55065819 182.71310286 180.21152927 184.39645958 181.8678093 C186.76147733 184.19630192 189.11014931 186.54021422 191.45581055 188.88818359 C192.1484903 189.56288696 192.84117004 190.23759033 193.55484009 190.93273926 C199.38874948 196.82868686 204.0489291 203.50969476 204.5625 212 C203.89029939 222.75520969 198.46062729 229.650541 191 237 C190.32453125 237.67417969 189.6490625 238.34835937 188.953125 239.04296875 C182.07261262 245.49688936 175.50696048 248.3777491 166.06640625 248.62890625 C157.34427025 246.84003505 150.95368725 241.68291973 144.88818359 235.45581055 C144.14545197 234.71380905 143.40272034 233.97180756 142.63748169 233.20732117 C140.21240721 230.77879404 137.80547832 228.33310962 135.3984375 225.88671875 C133.7098888 224.18883378 132.02022469 222.49205741 130.32949829 220.79634094 C125.90269891 216.35053645 121.49112784 211.88991896 117.0826416 207.42596436 C112.57337309 202.86536406 108.0497509 198.31904972 103.52734375 193.77148438 C94.67085425 184.86152161 85.82990198 175.93630814 77 167 C75.89215962 167.94106907 74.78554188 168.88357754 73.6794281 169.82667542 C73.06304694 170.35137704 72.44666578 170.87607866 71.81160641 171.41668034 C69.20543425 173.6944398 66.77916022 176.12760718 64.34765625 178.58984375 C63.84382919 179.09745743 63.34000214 179.60507111 62.82090759 180.12806702 C60.70099779 182.26406052 58.5871839 184.40604702 56.47290039 186.54760742 C54.91248317 188.12634563 53.3488841 189.70188564 51.78515625 191.27734375 C50.86613525 192.20796631 49.94711426 193.13858887 49.00024414 194.09741211 C46.78693646 196.28652728 44.48534442 198.33994222 42.12963867 200.37475586 C37.95734928 203.99113059 34.03776563 207.81761235 30.140625 211.7265625 C29.42896179 212.43726898 28.71729858 213.14797546 27.98406982 213.88021851 C26.49384852 215.3697645 25.00486838 216.86055319 23.51708984 218.35253906 C21.24559393 220.62941651 18.96877558 222.90087388 16.69140625 225.171875 C15.23665823 226.62728345 13.78222025 228.08300187 12.328125 229.5390625 C11.65203186 230.21313141 10.97593872 230.88720032 10.27935791 231.58169556 C6.9603802 234.91716018 3.90390611 238.28888624 1 242 C-1 243.546875 -1 243.546875 -3 244.75 C-3.99 245.36101562 -3.99 245.36101562 -5 245.984375 C-10.71214051 248.88507135 -17.37502676 248.83048923 -23.5234375 247.421875 C-34.79391923 243.51098229 -44.65472074 233.16514894 -50.1953125 222.75390625 C-52.46439507 217.01987328 -52.81017915 210.90444701 -51 205 C-47.42299839 198.80407935 -43.08864197 193.66286619 -38.00073242 188.67602539 C-37.32846619 188.00492737 -36.65619995 187.33382935 -35.96356201 186.64239502 C-33.76778351 184.45373178 -31.56169493 182.2757829 -29.35546875 180.09765625 C-27.81871324 178.56904664 -26.28269869 177.0396918 -24.74739075 175.5096283 C-20.7248837 171.50415864 -16.69387101 167.50736642 -12.66052246 163.51281738 C-6.18555056 157.09729287 0.27652238 150.66878008 6.73819542 144.23986626 C8.99624787 141.99579547 11.25805629 139.75556528 13.52046204 137.5158844 C14.89628962 136.15007438 16.27204151 134.7841881 17.64770508 133.41821289 C18.27988449 132.79434189 18.9120639 132.17047089 19.56340027 131.5276947 C22.66174165 128.55438076 22.66174165 128.55438076 25 125 C25.66 125 26.32 125 27 125 C27.66 123.35 28.32 121.7 29 120 C24.57448111 115.54897896 20.14493007 111.10199963 15.71264648 106.65771484 C14.20749841 105.14755984 12.70325182 103.63650576 11.19995117 102.12451172 C9.03023908 99.94257387 6.8572301 97.76396522 4.68359375 95.5859375 C4.01976181 94.91694427 3.35592987 94.24795105 2.67198181 93.5586853 C-0.89538164 89.99090093 -4.54792014 86.62278646 -8.4072113 83.37411499 C-10.73045102 81.36983248 -12.85418805 79.19180558 -15 77 C-16.1089921 75.90745446 -17.2205259 74.8174855 -18.33398438 73.72949219 C-21.6814068 70.45360733 -25.01631 67.16527987 -28.34716797 63.87255859 C-29.77881356 62.46104501 -31.21402633 61.0531401 -32.65283203 59.64892578 C-34.74700083 57.60367047 -36.82762834 55.54541515 -38.90625 53.484375 C-39.54284546 52.86842468 -40.17944092 52.25247437 -40.83532715 51.61785889 C-47.00430221 45.45196893 -51.55617475 38.65877197 -52.25 29.8125 C-51.57917786 19.58246231 -47.06455185 14.15674829 -40 7 C-39.32324219 6.25105469 -38.64648438 5.50210937 -37.94921875 4.73046875 C-27.00992718 -7.08571994 -13.67975369 -8.15281906 0 0 Z " fill="#121212" transform="translate(436,415)"/>
<path d="M0 0 C1.24083344 -0.00700928 2.48166687 -0.01401855 3.76010132 -0.02124023 C7.12195384 -0.03569674 10.48280449 -0.03249671 13.84459805 -0.01972389 C17.38769806 -0.00948672 20.93075974 -0.01901872 24.47386169 -0.02526855 C30.41901189 -0.03251322 36.36396228 -0.02304055 42.30908203 -0.00390625 C49.1524218 0.01786658 55.99528481 0.01079559 62.83861309 -0.01121187 C68.74818446 -0.02944529 74.65761349 -0.03188599 80.56720394 -0.0214572 C84.08192077 -0.01526686 87.59641451 -0.01426205 91.11111641 -0.02760315 C95.03259512 -0.04145304 98.95355245 -0.02218298 102.875 0 C104.01767838 -0.00809692 105.16035675 -0.01619385 106.33766174 -0.02453613 C119.10731222 0.10844148 129.30796875 4.05086984 138.87280273 12.51757812 C150.19953484 24.75986594 147.87280273 39.48389173 147.87280273 55.51757812 C83.85280273 55.51757812 19.83280273 55.51757812 -46.12719727 55.51757812 C-46.12719727 23.15177389 -46.12719727 23.15177389 -37.93579102 13.32617188 C-27.37856074 2.7689416 -14.52937661 -0.10313666 0 0 Z " fill="#FAFAFA" transform="translate(461.127197265625,253.482421875)"/>
<path d="M0 0 C0 3.63 0 7.26 0 11 C-0.66 10.67 -1.32 10.34 -2 10 C-2.4140625 7.93359375 -2.4140625 7.93359375 -2.625 5.4375 C-2.69976562 4.61121094 -2.77453125 3.78492188 -2.8515625 2.93359375 C-2.90054688 2.29550781 -2.94953125 1.65742187 -3 1 C-1 0 -1 0 0 0 Z " fill="#1C1D1D" transform="translate(210,698)"/>
<path d="M0 0 C-2.95183101 2.95183101 -5.95511947 3.08663988 -10 4 C-10 3.01 -10 2.02 -10 1 C-6.52674819 -0.1577506 -3.63932552 -0.06866652 0 0 Z " fill="#1B1B1B" transform="translate(773,758)"/>
<path d="M0 0 C0.66 0.66 1.32 1.32 2 2 C-1.465 4.97 -1.465 4.97 -5 8 C-5 5 -5 5 -2.5 2.3125 C-1.675 1.549375 -0.85 0.78625 0 0 Z " fill="#181919" transform="translate(579,424)"/>
<path d="M0 0 C5.75 1.75 5.75 1.75 8 4 C6.3125 4.6875 6.3125 4.6875 4 5 C1.25 3.5625 1.25 3.5625 -1 2 C-0.67 1.34 -0.34 0.68 0 0 Z " fill="#1A191A" transform="translate(600,221)"/>
<path d="M0 0 C1.2375 0.1546875 1.2375 0.1546875 2.5 0.3125 C3.16 1.3025 3.82 2.2925 4.5 3.3125 C1.53 2.9825 -1.44 2.6525 -4.5 2.3125 C-2.5 0.3125 -2.5 0.3125 0 0 Z " fill="#212021" transform="translate(262.5,759.6875)"/>
</svg>
